<svg width="94" height="98" viewBox="0 0 94 98" fill="none" xmlns="http://www.w3.org/2000/svg">
<g opacity="0.4" clip-path="url(#clip0_1_103585)">
<path d="M106.044 8.66358C88.717 14.9002 69.5481 12.0794 54.7528 1.11576C50.9632 -1.69238 45.7472 1.07946 44.9775 6.31055L41.3575 30.9089C41.2284 31.7867 41.1251 32.6639 41.04 33.5401C41.112 33.5165 41.1841 33.4944 41.2558 33.4704C46.2293 31.8114 50.8843 29.3595 55.0914 26.1822C57.2528 24.5499 59.7977 23.6871 62.4509 23.6871C65.6271 23.6871 68.7124 24.9275 71.1385 27.1797C73.4657 29.3401 75.0283 32.3255 75.5384 35.5858L79.3814 60.1504C80.462 67.0576 80.3162 74.1127 78.986 80.8405L85.8035 77.3036C98.7013 70.6123 107.954 56.9127 110.288 41.0523L113.908 16.4539C114.678 11.2232 110.481 7.06624 106.044 8.66358Z" fill="#CECECF"/>
<path d="M68.939 36.6187C68.3476 32.8387 65.4395 30.3672 62.451 30.3672C61.3097 30.3672 60.157 30.7274 59.1169 31.513C49.4363 38.8234 37.8237 42.6182 26.0578 42.6182C19.9628 42.6182 13.8284 41.6006 7.89666 39.5262C7.25652 39.3022 6.62173 39.1973 6.00764 39.1973C2.35096 39.1968 -0.596342 42.9152 0.103467 47.3879L3.94651 71.9525C6.42446 87.7911 15.8014 101.406 28.7593 107.98L37.8174 112.575C39.7058 113.533 41.7364 114 43.7483 114C47.1102 114 50.4209 112.698 52.9367 110.21L60.1585 103.068C70.4896 92.8503 75.2602 77.0221 72.7822 61.1833L68.939 36.6187ZM22.0193 66.3335C20.568 66.5606 19.2615 67.5343 18.3404 69.0755C17.7149 70.122 16.607 70.7025 15.4703 70.7025C14.8872 70.7025 14.2967 70.5497 13.7599 70.2289C12.1766 69.2826 11.6602 67.2319 12.6065 65.6486C14.5639 62.3738 17.5401 60.2735 20.9868 59.7342C24.4338 59.1952 27.9092 60.2862 30.773 62.8066C32.1577 64.0255 32.2922 66.1358 31.0736 67.5203C29.855 68.9048 27.7445 69.0395 26.36 67.8209C25.0122 66.6345 23.4706 66.1062 22.0193 66.3335ZM43.0659 96.0844C36.0324 97.1848 29.4389 92.3752 28.3385 85.3417C28.3374 85.3348 28.3363 85.3277 28.3352 85.3208C28.1944 84.4108 29.1007 83.6936 29.9637 84.0144C33.4848 85.3234 37.3801 85.775 41.3557 85.1529C45.3312 84.531 48.9026 82.9114 51.8555 80.5895C52.5793 80.0204 53.6612 80.4263 53.8053 81.3359C53.8064 81.3428 53.8075 81.3499 53.8086 81.3568C54.909 88.3903 50.0991 94.984 43.0659 96.0844ZM63.0357 62.5199C61.8171 63.9046 59.7065 64.039 58.3221 62.8204C56.9741 61.6341 55.432 61.1062 53.9814 61.3331C52.5297 61.5602 51.2233 62.5339 50.3024 64.0749C49.677 65.1214 48.5688 65.7021 47.4324 65.7021C46.8493 65.7021 46.259 65.5493 45.7222 65.2287C44.1389 64.2824 43.6223 62.232 44.5686 60.6484C46.5257 57.3736 49.502 55.2731 52.9489 54.7338C56.395 54.1943 59.8711 55.2858 62.7351 57.8062C64.1198 59.0248 64.2543 61.1352 63.0357 62.5199Z" fill="#CECECF"/>
</g>
<defs>
<clipPath id="clip0_1_103585">
<rect width="114" height="114" fill="white"/>
</clipPath>
</defs>
</svg>
