<svg width="106" height="91" viewBox="0 0 106 91" fill="none" xmlns="http://www.w3.org/2000/svg">
<g opacity="0.4">
<path d="M97.5435 60.8564H88.7272C89.6258 63.3167 90.1168 65.9719 90.1168 68.7393V102.06C90.1168 103.214 89.9159 104.321 89.5506 105.351H104.126C109.57 105.351 114 100.922 114 95.4772V77.3127C114 68.2388 106.618 60.8564 97.5435 60.8564ZM23.8832 68.7395C23.8832 65.9719 24.3742 63.317 25.2728 60.8566H16.4565C7.38239 60.8566 0 68.239 0 77.3131V95.4777C0 100.922 4.4293 105.352 9.87391 105.352H24.4494C24.0743 104.295 23.8828 103.181 23.8832 102.06V68.7395ZM67.0776 52.283H46.9224C37.8482 52.283 30.4658 59.6654 30.4658 68.7395V102.06C30.4658 103.878 31.9394 105.351 33.7571 105.351H80.2429C82.0606 105.351 83.5342 103.878 83.5342 102.06V68.7395C83.5342 59.6654 76.1518 52.283 67.0776 52.283ZM57 8.64795C46.0872 8.64795 37.209 17.5261 37.209 28.4392C37.209 35.8414 41.2945 42.3062 47.328 45.7004C50.1898 47.3102 53.4892 48.2302 57 48.2302C60.5108 48.2302 63.8102 47.3102 66.672 45.7004C72.7057 42.3062 76.791 35.8412 76.791 28.4392C76.791 17.5264 67.9128 8.64795 57 8.64795ZM22.2474 27.0948C14.0859 27.0948 7.44629 33.7344 7.44629 41.8959C7.44629 50.0573 14.0859 56.6969 22.2474 56.6969C24.253 56.6987 26.2377 56.2904 28.0798 55.4973C31.1761 54.1642 33.7291 51.8045 35.3088 48.8488C36.4532 46.7101 37.0508 44.3215 37.0484 41.8959C37.0484 33.7346 30.4088 27.0948 22.2474 27.0948ZM91.7526 27.0948C83.5912 27.0948 76.9516 33.7344 76.9516 41.8959C76.9491 44.3215 77.5467 46.7101 78.6912 48.8488C80.2709 51.8047 82.8239 54.1645 85.9201 55.4973C87.7622 56.2904 89.747 56.6987 91.7526 56.6969C99.9141 56.6969 106.554 50.0573 106.554 41.8959C106.554 33.7344 99.9141 27.0948 91.7526 27.0948Z" fill="#CECECF"/>
</g>
</svg>
