<svg width="16" height="16" viewBox="0 0 16 16" fill="none" xmlns="http://www.w3.org/2000/svg">
<path d="M11.0003 4.99996V5.00663M2.66699 5.33329C2.66699 4.62605 2.94794 3.94777 3.44804 3.44767C3.94814 2.94758 4.62641 2.66663 5.33366 2.66663H10.667C11.3742 2.66663 12.0525 2.94758 12.5526 3.44767C13.0527 3.94777 13.3337 4.62605 13.3337 5.33329V10.6666C13.3337 11.3739 13.0527 12.0521 12.5526 12.5522C12.0525 13.0523 11.3742 13.3333 10.667 13.3333H5.33366C4.62641 13.3333 3.94814 13.0523 3.44804 12.5522C2.94794 12.0521 2.66699 11.3739 2.66699 10.6666V5.33329ZM6.00033 7.99996C6.00033 8.53039 6.21104 9.0391 6.58611 9.41417C6.96118 9.78925 7.46989 9.99996 8.00033 9.99996C8.53076 9.99996 9.03947 9.78925 9.41454 9.41417C9.78961 9.0391 10.0003 8.53039 10.0003 7.99996C10.0003 7.46953 9.78961 6.96082 9.41454 6.58575C9.03947 6.21067 8.53076 5.99996 8.00033 5.99996C7.46989 5.99996 6.96118 6.21067 6.58611 6.58575C6.21104 6.96082 6.00033 7.46953 6.00033 7.99996Z" stroke="#F59C2F" stroke-width="1.2" stroke-linecap="round" stroke-linejoin="round"/>
</svg>
