<svg xmlns="http://www.w3.org/2000/svg" width="20" height="20" viewBox="0 0 20 20" fill="none">
  <g clip-path="url(#clip0_1_103550)">
    <path d="M3.33366 9.99996C3.33366 11.7681 4.03604 13.4638 5.28628 14.714C6.53652 15.9642 8.23222 16.6666 10.0003 16.6666M3.33366 9.99996C3.33366 8.23185 4.03604 6.53616 5.28628 5.28591C6.53652 4.03567 8.23222 3.33329 10.0003 3.33329M3.33366 9.99996H1.66699M10.0003 16.6666C11.7684 16.6666 13.4641 15.9642 14.7144 14.714C15.9646 13.4638 16.667 11.7681 16.667 9.99996M10.0003 16.6666V18.3333M16.667 9.99996C16.667 8.23185 15.9646 6.53616 14.7144 5.28591C13.4641 4.03567 11.7684 3.33329 10.0003 3.33329M16.667 9.99996H18.3337M10.0003 3.33329V1.66663M7.50033 9.99996C7.50033 10.663 7.76372 11.2989 8.23256 11.7677C8.7014 12.2366 9.33728 12.5 10.0003 12.5C10.6634 12.5 11.2993 12.2366 11.7681 11.7677C12.2369 11.2989 12.5003 10.663 12.5003 9.99996C12.5003 9.33692 12.2369 8.70103 11.7681 8.23219C11.2993 7.76335 10.6634 7.49996 10.0003 7.49996C9.33728 7.49996 8.7014 7.76335 8.23256 8.23219C7.76372 8.70103 7.50033 9.33692 7.50033 9.99996Z" stroke="#6B6B70" stroke-width="2" stroke-linecap="round" stroke-linejoin="round"/>
  </g>
  <defs>
    <clipPath id="clip0_1_103550">
      <rect width="20" height="20" fill="white"/>
    </clipPath>
  </defs>
</svg>