<svg xmlns="http://www.w3.org/2000/svg" width="20" height="20" viewBox="0 0 20 20" fill="none">
  <path d="M5 12.5H3.33333C3.11232 12.5 2.90036 12.4123 2.74408 12.256C2.5878 12.0997 2.5 11.8877 2.5 11.6667V8.33339C2.5 8.11238 2.5878 7.90042 2.74408 7.74414C2.90036 7.58786 3.11232 7.50006 3.33333 7.50006H5L7.91667 3.75006C7.9895 3.60858 8.11054 3.49783 8.25791 3.4378C8.40528 3.37778 8.56925 3.37244 8.72021 3.42276C8.87117 3.47308 8.99915 3.57573 9.08103 3.71218C9.16291 3.84862 9.19328 4.00984 9.16667 4.16673V15.8334C9.19328 15.9903 9.16291 16.1515 9.08103 16.2879C8.99915 16.4244 8.87117 16.527 8.72021 16.5774C8.56925 16.6277 8.40528 16.6223 8.25791 16.5623C8.11054 16.5023 7.9895 16.3915 7.91667 16.2501L5 12.5ZM2.5 2.5L17.5 17.5" stroke="#6B6B70" stroke-width="2" stroke-linecap="round" stroke-linejoin="round"/>
</svg>
