<svg xmlns="http://www.w3.org/2000/svg" width="20" height="20" viewBox="0 0 20 20" fill="none">
  <path d="M12.5 6.66672C13.0175 7.05484 13.4375 7.5581 13.7268 8.13667C14.0161 8.71523 14.1667 9.3532 14.1667 10.0001C14.1667 10.6469 14.0161 11.2849 13.7268 11.8634C13.4375 12.442 13.0175 12.9453 12.5 13.3334M14.75 4.16672C15.62 4.86976 16.3217 5.75849 16.8037 6.76782C17.2858 7.77715 17.536 8.88152 17.536 10.0001C17.536 11.1186 17.2858 12.223 16.8037 13.2323C16.3217 14.2416 15.62 15.1303 14.75 15.8334M5 12.5001H3.33333C3.11232 12.5001 2.90036 12.4123 2.74408 12.256C2.5878 12.0997 2.5 11.8877 2.5 11.6667V8.33339C2.5 8.11238 2.5878 7.90042 2.74408 7.74414C2.90036 7.58786 3.11232 7.50006 3.33333 7.50006H5L7.91667 3.75006C7.9895 3.60858 8.11054 3.49783 8.25791 3.4378C8.40528 3.37778 8.56925 3.37244 8.72021 3.42276C8.87117 3.47308 8.99915 3.57573 9.08103 3.71218C9.16291 3.84862 9.19328 4.00984 9.16667 4.16673V15.8334C9.19328 15.9903 9.16291 16.1515 9.08103 16.2879C8.99915 16.4244 8.87117 16.527 8.72021 16.5774C8.56925 16.6277 8.40528 16.6223 8.25791 16.5623C8.11054 16.5023 7.9895 16.3915 7.91667 16.2501L5 12.5001Z" stroke="#6B6B70" stroke-width="2" stroke-linecap="round" stroke-linejoin="round"/>
</svg>