<svg xmlns="http://www.w3.org/2000/svg" width="40" height="40" viewBox="0 0 40 40" fill="none">
  <path d="M14.9998 18.3333C14.9998 19.6594 15.5266 20.9312 16.4643 21.8689C17.402 22.8066 18.6738 23.3333 19.9998 23.3333C21.3259 23.3333 22.5977 22.8066 23.5354 21.8689C24.4731 20.9312 24.9998 19.6594 24.9998 18.3333C24.9998 17.0073 24.4731 15.7355 23.5354 14.7978C22.5977 13.8601 21.3259 13.3333 19.9998 13.3333C18.6738 13.3333 17.402 13.8601 16.4643 14.7978C15.5266 15.7355 14.9998 17.0073 14.9998 18.3333Z" stroke="#F59C2F" stroke-width="2.5" stroke-linecap="round" stroke-linejoin="round"/>
  <path d="M29.4282 27.7617L22.3565 34.8333C21.7315 35.4577 20.8841 35.8085 20.0007 35.8085C19.1172 35.8085 18.2699 35.4577 17.6448 34.8333L10.5715 27.7617C8.70688 25.8969 7.43707 23.5212 6.92266 20.9348C6.40824 18.3484 6.67233 15.6675 7.68152 13.2312C8.6907 10.7949 10.3997 8.71257 12.5923 7.24751C14.785 5.78246 17.3628 5.00049 19.9998 5.00049C22.6369 5.00049 25.2147 5.78246 27.4074 7.24751C29.6 8.71257 31.309 10.7949 32.3182 13.2312C33.3274 15.6675 33.5914 18.3484 33.077 20.9348C32.5626 23.5212 31.2928 25.8969 29.4282 27.7617Z" stroke="#F59C2F" stroke-width="2.5" stroke-linecap="round" stroke-linejoin="round"/>
</svg>