<svg width="28" height="28" viewBox="0 0 28 28" fill="none" xmlns="http://www.w3.org/2000/svg">
<path d="M19.2503 8.74996V8.76163M4.66699 9.33329C4.66699 8.09562 5.15866 6.90863 6.03383 6.03346C6.909 5.15829 8.09598 4.66663 9.33366 4.66663H18.667C19.9047 4.66663 21.0917 5.15829 21.9668 6.03346C22.842 6.90863 23.3337 8.09562 23.3337 9.33329V18.6666C23.3337 19.9043 22.842 21.0913 21.9668 21.9665C21.0917 22.8416 19.9047 23.3333 18.667 23.3333H9.33366C8.09598 23.3333 6.909 22.8416 6.03383 21.9665C5.15866 21.0913 4.66699 19.9043 4.66699 18.6666V9.33329ZM10.5003 14C10.5003 14.9282 10.8691 15.8185 11.5255 16.4748C12.1818 17.1312 13.0721 17.5 14.0003 17.5C14.9286 17.5 15.8188 17.1312 16.4752 16.4748C17.1316 15.8185 17.5003 14.9282 17.5003 14C17.5003 13.0717 17.1316 12.1815 16.4752 11.5251C15.8188 10.8687 14.9286 10.5 14.0003 10.5C13.0721 10.5 12.1818 10.8687 11.5255 11.5251C10.8691 12.1815 10.5003 13.0717 10.5003 14Z" stroke="#F59C2F" stroke-width="2" stroke-linecap="round" stroke-linejoin="round"/>
</svg>
