<svg width="52" height="64" viewBox="0 0 52 64" fill="none" xmlns="http://www.w3.org/2000/svg">
<path d="M51.044 24.6154C51.044 40.1793 26.0005 64 26.0005 64C26.0005 64 0.957031 40.1793 0.957031 24.6154C0.957031 11.0207 12.1694 0 26.0005 0C39.8316 0 51.044 11.0207 51.044 24.6154Z" fill="#F59C2F"/>
<circle cx="26.0007" cy="23.6521" r="19.4783" fill="white"/>
<path d="M24.8408 30.6272H27.1597V35.2464H24.8408V30.6272Z" fill="#F59C2F"/>
<path d="M32.957 15.1438C32.957 14.954 32.8412 14.7833 32.6649 14.713L26.1721 12.1262C26.0619 12.0823 25.939 12.0823 25.8288 12.1262L19.3361 14.713C19.1597 14.7833 19.0439 14.954 19.0439 15.1438V18.6153C19.0439 18.8714 18.8363 19.0791 18.5802 19.0791H14.87C14.6139 19.0791 14.4062 19.2867 14.4062 19.5428V34.7825C14.4062 35.0386 14.6139 35.2463 14.87 35.2463H22.0584C22.3146 35.2463 22.5222 35.0386 22.5222 34.7825V28.7812C22.5222 28.5251 22.7298 28.3175 22.986 28.3175H29.0149C29.2711 28.3175 29.4787 28.5251 29.4787 28.7812V34.7825C29.4787 35.0386 29.6863 35.2463 29.9425 35.2463H37.1309C37.387 35.2463 37.5947 35.0386 37.5947 34.7825V19.5428C37.5947 19.2867 37.387 19.0791 37.1309 19.0791H33.4207C33.1646 19.0791 32.957 18.8714 32.957 18.6153V15.1438ZM20.2034 30.1633C20.2034 30.4194 19.9957 30.6271 19.7396 30.6271H18.3483C18.0921 30.6271 17.8845 30.4194 17.8845 30.1633V28.7812C17.8845 28.5251 18.0921 28.3175 18.3483 28.3175H19.7396C19.9957 28.3175 20.2034 28.5251 20.2034 28.7812V30.1633ZM20.2034 25.5441C20.2034 25.8002 19.9957 26.0079 19.7396 26.0079H18.3483C18.0921 26.0079 17.8845 25.8002 17.8845 25.5441V24.162C17.8845 23.9059 18.0921 23.6983 18.3483 23.6983H19.7396C19.9957 23.6983 20.2034 23.9059 20.2034 24.162V25.5441ZM24.841 25.5441C24.841 25.8002 24.6334 26.0079 24.3773 26.0079H22.986C22.7298 26.0079 22.5222 25.8002 22.5222 25.5441V24.162C22.5222 23.9059 22.7298 23.6983 22.986 23.6983H24.3773C24.6334 23.6983 24.841 23.9059 24.841 24.162V25.5441ZM24.841 17.2332C24.841 16.9771 25.0487 16.7694 25.3048 16.7694H26.6961C26.9522 16.7694 27.1599 16.9771 27.1599 17.2332V20.9249C27.1599 21.181 26.9522 21.3887 26.6961 21.3887H25.3048C25.0487 21.3887 24.841 21.181 24.841 20.9249V17.2332ZM29.4787 25.5441C29.4787 25.8002 29.2711 26.0079 29.0149 26.0079H27.6236C27.3675 26.0079 27.1599 25.8002 27.1599 25.5441V24.162C27.1599 23.9059 27.3675 23.6983 27.6236 23.6983H29.0149C29.2711 23.6983 29.4787 23.9059 29.4787 24.162V25.5441ZM34.1164 30.1633C34.1164 30.4194 33.9088 30.6271 33.6526 30.6271H32.2613C32.0052 30.6271 31.7976 30.4194 31.7976 30.1633V28.7812C31.7976 28.5251 32.0052 28.3175 32.2613 28.3175H33.6526C33.9088 28.3175 34.1164 28.5251 34.1164 28.7812V30.1633ZM33.6526 23.6983C33.9088 23.6983 34.1164 23.9059 34.1164 24.162V25.5441C34.1164 25.8002 33.9088 26.0079 33.6526 26.0079H32.2613C32.0052 26.0079 31.7976 25.8002 31.7976 25.5441V24.162C31.7976 23.9059 32.0052 23.6983 32.2613 23.6983H33.6526Z" fill="#F59C2F"/>
</svg>
