<svg width="24" height="24" viewBox="0 0 24 24" fill="none" xmlns="http://www.w3.org/2000/svg">
<path d="M11 18.0161H13V22.0002H11V18.0161Z" fill="#F59C2F"/>
<path d="M18 4.66165C18 4.49789 17.9002 4.35067 17.748 4.29006L12.148 2.05898C12.053 2.02111 11.947 2.02111 11.852 2.05898L6.25195 4.29006C6.09982 4.35067 6 4.49789 6 4.66165V7.65578C6 7.87669 5.82091 8.05578 5.6 8.05578H2.4C2.17909 8.05578 2 8.23486 2 8.45578V21.6C2 21.8209 2.17909 22 2.4 22H8.6C8.82091 22 9 21.8209 9 21.6V16.4239C9 16.203 9.17909 16.0239 9.4 16.0239H14.6C14.8209 16.0239 15 16.203 15 16.4239V21.6C15 21.8209 15.1791 22 15.4 22H21.6C21.8209 22 22 21.8209 22 21.6V8.45578C22 8.23486 21.8209 8.05578 21.6 8.05578H18.4C18.1791 8.05578 18 7.87669 18 7.65578V4.66165ZM7 17.6159C7 17.8369 6.82091 18.0159 6.6 18.0159H5.4C5.17909 18.0159 5 17.8369 5 17.6159V16.4239C5 16.203 5.17909 16.0239 5.4 16.0239H6.6C6.82091 16.0239 7 16.203 7 16.4239V17.6159ZM7 13.6319C7 13.8528 6.82091 14.0319 6.6 14.0319H5.4C5.17909 14.0319 5 13.8528 5 13.6319V12.4398C5 12.2189 5.17909 12.0398 5.4 12.0398H6.6C6.82091 12.0398 7 12.2189 7 12.4398V13.6319ZM11 13.6319C11 13.8528 10.8209 14.0319 10.6 14.0319H9.4C9.17909 14.0319 9 13.8528 9 13.6319V12.4398C9 12.2189 9.17909 12.0398 9.4 12.0398H10.6C10.8209 12.0398 11 12.2189 11 12.4398V13.6319ZM11 6.46375C11 6.24283 11.1791 6.06375 11.4 6.06375H12.6C12.8209 6.06375 13 6.24283 13 6.46375V9.64781C13 9.86872 12.8209 10.0478 12.6 10.0478H11.4C11.1791 10.0478 11 9.86872 11 9.64781V6.46375ZM15 13.6319C15 13.8528 14.8209 14.0319 14.6 14.0319H13.4C13.1791 14.0319 13 13.8528 13 13.6319V12.4398C13 12.2189 13.1791 12.0398 13.4 12.0398H14.6C14.8209 12.0398 15 12.2189 15 12.4398V13.6319ZM19 17.6159C19 17.8369 18.8209 18.0159 18.6 18.0159H17.4C17.1791 18.0159 17 17.8369 17 17.6159V16.4239C17 16.203 17.1791 16.0239 17.4 16.0239H18.6C18.8209 16.0239 19 16.203 19 16.4239V17.6159ZM18.6 12.0398C18.8209 12.0398 19 12.2189 19 12.4398V13.6319C19 13.8528 18.8209 14.0319 18.6 14.0319H17.4C17.1791 14.0319 17 13.8528 17 13.6319V12.4398C17 12.2189 17.1791 12.0398 17.4 12.0398H18.6Z" fill="#F59C2F"/>
</svg>
