<svg xmlns="http://www.w3.org/2000/svg" width="28" height="28" viewBox="0 0 28 28" fill="none">
  <path d="M18.6699 5.15852C19.0029 4.31438 20.1975 4.31437 20.5305 5.15852L21.8167 8.4199C21.9184 8.67762 22.1224 8.88163 22.3801 8.98327L25.6415 10.2695C26.4856 10.6025 26.4856 11.7971 25.6415 12.1301L22.3801 13.4163C22.1224 13.518 21.9184 13.722 21.8167 13.9797L20.5305 17.2411C20.1975 18.0852 19.0029 18.0852 18.6699 17.2411L17.3837 13.9797C17.282 13.722 17.078 13.518 16.8203 13.4163L13.5589 12.1301C12.7148 11.7971 12.7148 10.6025 13.5589 10.2695L16.8203 8.98327C17.078 8.88163 17.282 8.67762 17.3837 8.4199L18.6699 5.15852Z" fill="#E1E1E2"/>
  <path d="M5.13487 15.1794C5.30133 14.7573 5.89867 14.7573 6.06513 15.1794L7.10425 17.8141C7.15507 17.9429 7.25707 18.0449 7.38593 18.0958L10.0206 19.1349C10.4427 19.3013 10.4427 19.8987 10.0206 20.0651L7.38593 21.1042C7.25707 21.1551 7.15507 21.2571 7.10425 21.3859L6.06513 24.0206C5.89867 24.4427 5.30133 24.4427 5.13487 24.0206L4.09575 21.3859C4.04493 21.2571 3.94293 21.1551 3.81407 21.1042L1.17936 20.0651C0.757286 19.8987 0.757285 19.3013 1.17936 19.1349L3.81407 18.0958C3.94293 18.0449 4.04493 17.9429 4.09575 17.8141L5.13487 15.1794Z" fill="#E1E1E2"/>
</svg>