<svg width="713" height="122" viewBox="0 0 713 122" fill="none" xmlns="http://www.w3.org/2000/svg">
<path d="M1 0.629206H0.629206V1V121V121.371H1H25.6094H25.9802V121V42.9724H26.3542L57.3158 120.552L57.4089 120.785H57.6602H74.418H74.6689L74.7622 120.552L105.724 43.2653H106.098V121V121.371H106.469H131.078H131.449V121V1V0.629206H131.078H99.7891H99.5403L99.446 0.859372L66.4934 81.2542H65.5847L32.6322 0.859372L32.5378 0.629206H32.2891H1ZM172.665 121.371H172.934L173.018 121.115L181.836 94.0075H224.624L233.426 121.115L233.509 121.371H233.778H260.966H261.486L261.316 120.879L219.949 0.879156L219.863 0.629206H219.599H186.903H186.639L186.553 0.879003L145.127 120.879L144.957 121.371H145.478H172.665ZM203.45 28.7927L217.953 73.4612H188.52L203.052 28.7927H203.45ZM275.038 121V121.371H275.409H300.78H301.151V121V78.8317H319.078L341.703 121.175L341.808 121.371H342.03H370.038H370.663L370.363 120.822L345.097 74.5577C345.34 74.4494 345.581 74.339 345.82 74.2266C352.404 71.1512 357.443 66.7284 360.922 60.957L360.923 60.9561C364.401 55.1462 366.132 48.2222 366.132 40.1992C366.132 32.2165 364.421 25.2565 360.985 19.3321C357.588 13.3664 352.629 8.76622 346.124 5.53244C339.654 2.25801 331.859 0.629206 322.753 0.629206H275.409H275.038V1V121ZM318.007 57.6995H301.151V22.113H317.89C322.739 22.113 326.726 22.8312 329.866 24.2482L329.871 24.2503C333.049 25.6288 335.386 27.6486 336.904 30.3051L336.906 30.3085C338.466 32.9731 339.257 36.264 339.257 40.1992C339.257 44.0952 338.466 47.3254 336.908 49.9101L336.906 49.9136C335.389 52.4918 333.074 54.4343 329.935 55.7356C326.791 57.0392 322.82 57.6995 318.007 57.6995ZM383.32 121V121.371H383.69H409.062H409.432V121V87.0309L421.511 72.2867L454.105 121.206L454.215 121.371H454.413H484.765H485.465L485.071 120.792L440.169 54.7525L484.523 1.23661L485.026 0.629206H484.237H453.827H453.651L453.54 0.765546L410.468 53.5394H409.432V1V0.629206H409.062H383.69H383.32V1V121ZM518.134 121.371H518.403L518.486 121.115L527.305 94.0075H570.093L578.894 121.115L578.978 121.371H579.247H606.435H606.955L606.785 120.879L565.418 0.879156L565.332 0.629206H565.067H532.372H532.108L532.022 0.879003L490.596 120.879L490.426 121.371H490.946H518.134ZM563.422 73.4612H533.989L548.52 28.7927H548.919L563.422 73.4612ZM619.218 121V121.371H619.589H711.464H711.835V121V100.082V99.7112H711.464H652.125L711.649 16.2739L711.717 16.1773V16.0586V1V0.629206H711.347H619.472H619.101V1V21.918V22.2888H619.472H678.752L619.287 105.726L619.218 105.823V105.941V121Z" stroke="url(#paint0_linear_1_104472)" stroke-opacity="0.12" stroke-width="0.741587"/>
<defs>
<linearGradient id="paint0_linear_1_104472" x1="1" y1="1" x2="1" y2="121" gradientUnits="userSpaceOnUse">
<stop stop-color="white"/>
<stop offset="1" stop-color="white" stop-opacity="0"/>
</linearGradient>
</defs>
</svg>
